<svg width="1114" height="156" viewBox="0 0 1114 156" fill="none" xmlns="http://www.w3.org/2000/svg">
<circle cx="77.0811" cy="77.3865" r="11.0635" fill="white"/>
<path d="M101.677 155.058V129.268C115.742 129.268 127.096 117.748 127.096 103.477H152.516C152.516 132.019 129.723 155.058 101.677 155.058Z" fill="white"/>
<path d="M101.677 155.058V129.267C87.6119 129.267 76.2579 117.748 76.2579 103.477H50.8384C50.8384 132.018 73.6312 155.058 101.677 155.058Z" fill="white"/>
<path d="M0 103.477H25.4195C25.4195 117.747 36.7736 129.267 50.839 129.267V155.058C22.7928 155.058 0 132.018 0 103.477Z" fill="white"/>
<path d="M0 103.476H25.4195C25.4195 89.2053 36.7736 77.6855 50.839 77.6855V51.8949C22.7928 51.8949 0 75.0204 0 103.476Z" fill="white"/>
<path d="M50.839 0.314358V26.105C36.7736 26.105 25.4195 37.6247 25.4195 51.8955H0C0 23.4399 22.7928 0.314358 50.839 0.314358Z" fill="white"/>
<path d="M50.8398 0.314514V26.1051C64.9053 26.1051 76.2593 37.6249 76.2593 51.8957H101.679C101.679 23.4401 78.886 0.314514 50.8398 0.314514Z" fill="white"/>
<path d="M152.517 51.8957H127.098C127.098 37.6249 115.744 26.1051 101.678 26.1051V0.314545C129.724 0.314545 152.517 23.4401 152.517 51.8957Z" fill="white"/>
<path d="M152.517 51.8953H127.097C127.097 66.1661 115.743 77.6859 101.678 77.6859V103.476C129.724 103.476 152.517 80.4369 152.517 51.8953Z" fill="white"/>
<path d="M202.527 19.7991H249.282V151.098H269.2V19.7991H315.955V3.12617H202.527V19.7991Z" fill="white"/>
<path d="M333.837 151.098H351.658V96.703C351.658 73.1525 361.932 59.6057 379.963 59.6057C395.059 59.6057 402.816 69.1926 402.816 87.5329V151.098H420.638V86.2824C420.638 58.7721 408.687 44.3917 386.043 44.3917C369.69 44.3917 357.948 51.8945 351.658 66.4833V0H333.837V151.098Z" fill="white"/>
<path d="M477.058 153.599C494.251 153.599 507.46 145.471 512.282 132.133C512.491 138.802 513.12 145.68 513.959 151.098H532.619C530.103 142.97 529.055 131.925 529.055 115.877V87.7413C529.055 57.3132 516.475 44.3917 487.751 44.3917C463.221 44.3917 446.448 58.3552 444.98 79.6132H464.059C464.898 66.4833 473.704 58.9805 487.961 58.9805C504.105 58.9805 511.024 66.6917 511.024 85.8656V87.5329L491.525 89.8254C474.333 91.9095 464.269 94.4104 456.302 98.3702C446.867 103.581 441.625 112.542 441.625 122.963C441.625 141.511 455.673 153.599 477.058 153.599ZM460.495 122.546C460.495 112.334 467.204 106.915 482.719 104.623L511.234 100.454V105.665C511.234 125.881 499.283 139.011 481.042 139.011C468.253 139.011 460.495 132.758 460.495 122.546Z" fill="white"/>
<path d="M577.71 0H559.888V151.098H577.71V0Z" fill="white"/>
<path d="M637.181 153.599C654.373 153.599 667.582 145.471 672.404 132.133C672.614 138.802 673.243 145.68 674.081 151.098H692.741C690.225 142.97 689.177 131.925 689.177 115.877V87.7413C689.177 57.3132 676.597 44.3917 647.873 44.3917C623.343 44.3917 606.57 58.3552 605.102 79.6132H624.181C625.02 66.4833 633.826 58.9805 648.083 58.9805C664.227 58.9805 671.146 66.6917 671.146 85.8656V87.5329L651.647 89.8254C634.455 91.9095 624.391 94.4104 616.424 98.3702C606.989 103.581 601.747 112.542 601.747 122.963C601.747 141.511 615.795 153.599 637.181 153.599ZM620.617 122.546C620.617 112.334 627.326 106.915 642.841 104.623L671.356 100.454V105.665C671.356 125.881 659.405 139.011 641.164 139.011C628.375 139.011 620.617 132.758 620.617 122.546Z" fill="white"/>
<path d="M790.664 155.058C831.758 155.058 858.595 125.464 858.595 77.5291C858.595 29.1776 831.758 0 790.664 0C749.361 0 722.524 29.1776 722.524 77.5291C722.524 124.839 749.361 155.058 790.664 155.058ZM743.49 77.5291C743.49 39.5982 760.892 16.6729 790.664 16.6729C820.437 16.6729 837.629 39.5982 837.629 77.5291C837.629 115.252 820.437 138.385 790.664 138.385C760.892 138.385 743.49 114.626 743.49 77.5291Z" fill="white"/>
<path d="M931.008 155.058C968.118 155.058 985.311 134.425 985.311 111.5C985.311 84.6151 967.28 74.4029 944.217 69.6095L922.412 65.0244C905.848 61.4814 898.091 53.9786 898.091 39.5982C898.091 24.5926 910.67 15.6309 928.911 15.6309C950.926 15.6309 962.038 26.4683 964.554 46.2674L984.472 42.0991C981.537 13.1299 958.893 0 929.33 0C897.671 0 877.544 16.6729 877.544 41.4739C877.544 66.9001 893.688 77.9459 914.864 82.3226L936.459 86.6992C953.861 90.2422 964.764 95.8693 964.764 113.376C964.764 132.133 947.781 138.802 931.637 138.802C905.429 138.802 894.107 122.754 891.381 104.623L871.254 107.54C873.77 134.634 893.059 155.058 931.008 155.058Z" fill="white"/>
<path d="M1059.7 155.058C1096.81 155.058 1114 134.425 1114 111.5C1114 84.6151 1095.97 74.4029 1072.91 69.6095L1051.1 65.0244C1034.54 61.4814 1026.78 53.9786 1026.78 39.5982C1026.78 24.5926 1039.36 15.6309 1057.6 15.6309C1079.61 15.6309 1090.73 26.4683 1093.24 46.2674L1113.16 42.0991C1110.23 13.1299 1087.58 0 1058.02 0C1026.36 0 1006.23 16.6729 1006.23 41.4739C1006.23 66.9001 1022.38 77.9459 1043.55 82.3226L1065.15 86.6992C1082.55 90.2422 1093.45 95.8693 1093.45 113.376C1093.45 132.133 1076.47 138.802 1060.33 138.802C1034.12 138.802 1022.8 122.754 1020.07 104.623L999.943 107.54C1002.46 134.634 1021.75 155.058 1059.7 155.058Z" fill="white"/>
</svg>
