<svg width="400" height="400" viewBox="0 0 400 400" fill="none" xmlns="http://www.w3.org/2000/svg">
<circle cx="201.75" cy="199.154" r="21.0093" fill="white"/>
<path d="M248.455 346.65V297.674C275.165 297.674 296.726 275.799 296.726 248.699H344.997C344.997 302.898 301.714 346.65 248.455 346.65Z" fill="white"/>
<path d="M248.457 346.649V297.674C221.747 297.674 200.186 275.798 200.186 248.698H151.915C151.915 302.898 195.198 346.649 248.457 346.649Z" fill="white"/>
<path d="M55.375 248.698H103.646C103.646 275.798 125.207 297.674 151.917 297.674V346.649C98.6578 346.649 55.375 302.898 55.375 248.698Z" fill="white"/>
<path d="M55.375 248.697H103.646C103.646 221.597 125.207 199.721 151.917 199.721V150.746C98.6578 150.746 55.375 194.661 55.375 248.697Z" fill="white"/>
<path d="M151.917 52.7963V101.772C125.207 101.772 103.646 123.648 103.646 150.747H55.375C55.375 96.711 98.6578 52.7963 151.917 52.7963Z" fill="white"/>
<path d="M151.918 52.7966V101.772C178.628 101.772 200.189 123.648 200.189 150.748H248.46C248.46 96.7113 205.177 52.7966 151.918 52.7966Z" fill="white"/>
<path d="M345 150.748H296.729C296.729 123.648 275.168 101.772 248.458 101.772V52.7967C301.717 52.7967 345 96.7114 345 150.748Z" fill="white"/>
<path d="M344.999 150.747H296.728C296.728 177.847 275.167 199.722 248.457 199.722V248.698C301.716 248.698 344.999 204.946 344.999 150.747Z" fill="white"/>
</svg>
